<svg id="Capa_1" enable-background="new 0 0 512 512" height="512" viewBox="0 0 512 512" width="512" xmlns="http://www.w3.org/2000/svg"><g><path d="m504.5 78.696c0-6.913-5.604-12.518-12.518-12.518h-471.964c-6.913 0-12.518 5.604-12.518 12.518v37.482h497z" fill="#5c90b9"/><path d="m7.5 116.178v317.126c0 6.913 5.604 12.518 12.518 12.518h471.964c6.913 0 12.518-5.604 12.518-12.518v-317.126z" fill="#665e66"/><path d="m491.982 66.178h-27.482v50h40v-37.482c0-6.913-5.604-12.518-12.518-12.518z" fill="#4a80aa"/><path d="m464.5 116.178v190.145c0 65.997-53.501 119.499-119.499 119.499h-337.501v7.482c0 6.913 5.604 12.518 12.518 12.518h471.964c6.913 0 12.518-5.604 12.518-12.518v-317.126z" fill="#544f57"/><path d="m396.977 263.449c0-42.19-34.698-76.276-77.114-75.277-40.509.954-73.302 34.417-73.482 74.937-.107 24.31 11.306 45.959 29.094 59.801 1.256.977 1.916 2.536 1.773 4.121l-3.754 41.674c-.249 2.764 1.928 5.145 4.703 5.145h86.964c2.775 0 4.952-2.382 4.703-5.145l-3.754-41.673c-.143-1.583.514-3.142 1.768-4.118 17.708-13.778 29.099-35.291 29.099-59.465z" fill="#f1f1f4"/><path d="m367.878 322.913c17.708-13.777 29.1-35.29 29.1-59.464 0-37.453-27.344-68.519-63.158-74.325 14.273 13.703 23.158 32.976 23.158 54.325 0 20.947-8.553 39.896-22.358 53.546-5.507 5.445-8.234 13.101-7.539 20.814l.68 7.544c1.379 15.307-10.676 28.497-26.045 28.497h-26.882l-1.338 14.855c-.249 2.764 1.928 5.145 4.703 5.145h86.964c2.775 0 4.952-2.382 4.703-5.145l-3.754-41.673c-.145-1.584.511-3.143 1.766-4.119z" fill="#dfdde2"/><path d="m271.952 264.761c-.488 2.051-.638 4.234-.386 6.486.956 8.553 7.876 15.46 16.43 16.402 11.258 1.239 20.785-7.544 20.785-18.551 0-1.492-.175-2.944-.506-4.335-.282-1.186-1.382-1.998-2.601-1.998h-31.122c-1.218 0-2.318.811-2.6 1.996z" fill="#665e66"/><path d="m335.149 264.761c-.488 2.051-.638 4.234-.386 6.486.956 8.553 7.876 15.46 16.43 16.402 11.258 1.239 20.785-7.544 20.785-18.551 0-1.492-.175-2.944-.506-4.335-.282-1.186-1.382-1.998-2.601-1.998h-31.122c-1.218 0-2.318.811-2.6 1.996z" fill="#665e66"/><path d="m371.978 269.098c0-1.492-.175-2.944-.506-4.335-.282-1.186-1.382-1.998-2.601-1.998h-14.394c-2.163 8.173-5.666 15.801-10.259 22.635 2.113 1.187 4.474 1.973 6.976 2.248 11.257 1.239 20.784-7.543 20.784-18.55z" fill="#544f57"/><path d="m73.962 362.008c-3.921 0-7.781-1.839-10.217-5.284-3.986-5.637-2.647-13.437 2.989-17.423l77.796-55.01-77.796-55.01c-5.637-3.986-6.975-11.786-2.989-17.423 3.985-5.637 11.786-6.976 17.423-2.989l92.23 65.216c3.313 2.343 5.283 6.148 5.283 10.206s-1.97 7.863-5.283 10.206l-92.23 65.216c-2.192 1.549-4.711 2.295-7.206 2.295z" fill="#f1f1f4"/><path d="m255.47 299.342-23.459 13.544c-5.536 3.196-12.356 3.696-18.093.878-4.876-2.395-10.879-2.258-15.831.994-6.775 4.45-9.121 13.548-5.353 20.724 1.265 2.41 3.048 4.354 5.135 5.777 4.408 3.006 7.263 7.95 7.662 13.271.189 2.519.982 5.035 2.436 7.336 4.331 6.851 13.383 9.368 20.624 5.726 5.293-2.662 8.413-7.792 8.776-13.213.428-6.378 4.271-12.034 9.807-15.23l28.228-16.297c-8.153-6.361-14.962-14.363-19.932-23.51z" fill="#dfdde2"/><path d="m447.139 223.78c-1.265-2.409-3.048-4.354-5.135-5.777-4.408-3.006-7.263-7.95-7.662-13.271-.189-2.519-.982-5.035-2.436-7.336-4.331-6.851-13.383-9.369-20.624-5.726-5.293 2.662-8.413 7.792-8.777 13.213-.428 6.378-4.271 12.034-9.807 15.231l-6.834 3.945c5.329 8.665 8.953 18.492 10.403 29.012l11.594-6.694c5.536-3.196 12.356-3.696 18.093-.878 4.876 2.395 10.879 2.258 15.831-.995 6.776-4.449 9.122-13.547 5.354-20.724z" fill="#c6c1c8"/><path d="m257.089 224.904-8.297-4.79c-5.536-3.196-9.378-8.853-9.807-15.231-.364-5.42-3.484-10.55-8.777-13.213-7.241-3.642-16.293-1.125-20.624 5.726-1.454 2.3-2.247 4.817-2.436 7.336-.399 5.321-3.253 10.265-7.662 13.271-2.087 1.423-3.87 3.368-5.135 5.777-3.768 7.176-1.422 16.275 5.353 20.724 4.952 3.253 10.955 3.39 15.831.995 5.738-2.818 12.558-2.319 18.093.878l13.339 7.701c1.328-10.532 4.861-20.42 10.122-29.174z" fill="#dfdde2"/><path d="m443.402 314.758c-4.952-3.252-10.955-3.389-15.831-.994-5.737 2.818-12.557 2.319-18.093-.878l-22.042-12.726c-4.943 8.836-11.616 16.573-19.559 22.753-.234.182-.447.385-.638.604l27.076 15.633c5.536 3.196 9.378 8.853 9.807 15.23.364 5.42 3.484 10.55 8.776 13.213 7.241 3.642 16.293 1.125 20.624-5.726 1.454-2.3 2.247-4.817 2.436-7.336.399-5.321 3.253-10.265 7.662-13.271 2.087-1.423 3.87-3.368 5.135-5.777 3.768-7.177 1.422-16.275-5.353-20.725z" fill="#c6c1c8"/><circle cx="37.5" cy="91.178" r="7.5"/><circle cx="68.121" cy="91.178" r="7.5"/><circle cx="98.742" cy="91.178" r="7.5"/><path d="m20.018 453.322h471.965c11.038 0 20.018-8.98 20.018-20.018v-68.375c0-4.142-3.358-7.5-7.5-7.5s-7.5 3.358-7.5 7.5v68.375c0 2.767-2.251 5.018-5.018 5.018h-471.965c-2.767 0-5.018-2.251-5.018-5.018v-309.626h482v206.251c0 4.142 3.358 7.5 7.5 7.5s7.5-3.358 7.5-7.5v-251.233c0-11.038-8.98-20.018-20.018-20.018h-89.124c-4.142 0-7.5 3.358-7.5 7.5s3.358 7.5 7.5 7.5h89.124c2.767 0 5.018 2.251 5.018 5.018v29.982h-482v-29.982c0-2.767 2.251-5.018 5.018-5.018h347.841c4.142 0 7.5-3.358 7.5-7.5s-3.358-7.5-7.5-7.5h-347.841c-11.038 0-20.018 8.98-20.018 20.018v354.608c0 11.038 8.98 20.018 20.018 20.018z"/><path d="m326.982 295.36c-2.929-2.929-7.678-2.929-10.606 0l-12.416 12.416c-2.929 2.929-2.929 7.677 0 10.606 2.929 2.93 7.678 2.929 10.606 0l7.113-7.112 7.113 7.112c2.928 2.929 7.677 2.929 10.606 0s2.929-7.678 0-10.606z"/><path d="m315.572 263.028c-1.087-4.57-5.157-7.762-9.898-7.762h-31.122c-4.739 0-8.808 3.19-9.896 7.757v.003c-.702 2.952-.885 5.998-.543 9.054 1.436 12.847 12.468 23.182 25.95 23.182 6.439 0 12.694-2.357 17.509-6.671 7.108-6.369 10.231-16.172 8-25.563zm-26.756 17.165c-5.156-.567-9.305-4.754-9.812-9.928h22.216c-.625 5.921-5.909 10.639-12.404 9.928z"/><path d="m378.769 263.03c-1.085-4.572-5.156-7.765-9.898-7.765h-31.122c-4.739 0-8.808 3.19-9.896 7.757v.001c-.702 2.951-.885 5.997-.543 9.056 1.436 12.846 12.468 23.182 25.95 23.182 17.106.001 29.388-15.939 25.509-32.231zm-26.756 17.163c-5.156-.567-9.305-4.754-9.812-9.928h22.216c-.631 5.971-5.96 10.633-12.404 9.928z"/><path d="m54.239 346.125c-.903 5.265.298 10.567 3.382 14.928 3.743 5.294 9.852 8.455 16.341 8.455 4.15 0 8.139-1.27 11.536-3.671l92.23-65.216c5.293-3.743 8.453-9.847 8.453-16.33s-3.16-12.587-8.453-16.33l-40.895-28.917c-3.382-2.391-8.062-1.589-10.454 1.793s-1.589 8.062 1.793 10.454l40.895 28.917c1.323.936 2.113 2.461 2.113 4.082s-.79 3.146-2.113 4.083l-92.23 65.216c-1.074.76-2.157.919-2.876.919-1.651 0-3.143-.771-4.093-2.114-1.592-2.251-1.055-5.377 1.196-6.969l77.796-55.01c1.988-1.406 3.17-3.689 3.17-6.124s-1.182-4.718-3.17-6.124l-77.796-55.01c-2.251-1.592-2.788-4.718-1.195-6.97 1.593-2.253 4.707-2.793 6.969-1.195l22.714 16.062c3.382 2.393 8.062 1.59 10.454-1.793 2.392-3.382 1.589-8.062-1.793-10.454l-22.714-16.062c-4.362-3.085-9.664-4.286-14.93-3.382-5.265.903-9.863 3.803-12.947 8.165-6.367 9.004-4.222 21.509 4.783 27.876l69.136 48.887-69.136 48.887c-4.363 3.083-7.262 7.681-8.166 12.947z"/><path d="m396.639 354.882c.805 11.989 10.757 21.858 23.269 21.858 7.852 0 15.561-3.916 19.955-10.867 2.054-3.249 3.29-6.977 3.576-10.783.229-3.055 1.877-5.909 4.408-7.634 3.153-2.15 5.765-5.085 7.55-8.488 5.54-10.552 2.081-23.94-7.876-30.479-6.921-4.545-15.831-5.104-23.254-1.458-3.359 1.65-7.485 1.41-11.037-.641l-15.889-9.174c5.677-12.733 7.917-26.514 6.903-40.091l7.37-4.255c3.553-2.051 7.678-2.29 11.037-.641 7.425 3.646 16.335 3.088 23.254-1.458 9.957-6.54 13.417-19.928 7.876-30.479-1.787-3.403-4.398-6.338-7.55-8.487-2.531-1.726-4.179-4.58-4.408-7.635-.286-3.805-1.522-7.534-3.576-10.783-6.369-10.074-19.693-13.771-30.334-8.418-7.396 3.721-12.335 11.158-12.89 19.41-.25 3.733-2.521 7.187-6.073 9.238l-.781.451c-2.592-3.471-5.475-6.767-8.638-9.856-16.083-15.708-37.323-24.057-59.844-23.539-21.554.507-41.812 9.343-57.043 24.878-2.885 2.943-5.526 6.061-7.913 9.33l-2.189-1.264c-3.552-2.051-5.823-5.504-6.073-9.238-.554-8.252-5.493-15.689-12.889-19.41-10.642-5.354-23.966-1.655-30.334 8.419-2.054 3.249-3.29 6.977-3.576 10.783-.229 3.055-1.877 5.909-4.408 7.634-3.152 2.149-5.763 5.084-7.55 8.487-5.541 10.552-2.081 23.94 7.875 30.479 6.921 4.546 15.832 5.105 23.255 1.458 3.359-1.65 7.484-1.41 11.037.641l9.17 5.294c-.831 13.079 1.403 26.193 6.589 38.194l-17.375 10.031c-3.554 2.051-7.679 2.291-11.037.641-7.425-3.646-16.334-3.087-23.254 1.458-9.957 6.539-13.417 19.927-7.877 30.479 1.787 3.403 4.398 6.338 7.551 8.487 2.531 1.726 4.179 4.58 4.408 7.635.286 3.805 1.522 7.534 3.576 10.783 4.395 6.952 12.102 10.867 19.955 10.867 12.507 0 22.464-9.866 23.269-21.858.251-3.734 2.521-7.187 6.074-9.238l18.055-10.424-2.956 32.811c-.307 3.41.841 6.815 3.151 9.342s5.598 3.977 9.021 3.977h86.964c3.424 0 6.712-1.449 9.021-3.976 2.31-2.527 3.458-5.933 3.151-9.342l-2.853-31.674 16.086 9.287c3.55 2.051 5.82 5.504 6.071 9.238zm9.09-35.5c7.891 4.555 17.293 4.972 25.149 1.114 2.722-1.337 5.865-1.138 8.407.531 3.521 2.313 4.791 7.233 2.829 10.97-.657 1.252-1.572 2.284-2.719 3.066-6.268 4.273-10.348 11.341-10.916 18.906-.104 1.384-.54 2.693-1.296 3.889-2.254 3.566-7.151 4.926-10.915 3.034-2.717-1.367-4.46-3.989-4.663-7.015-.586-8.734-5.648-16.667-13.54-21.223l-18.057-10.425c3.728-3.685 7.067-7.679 9.992-11.928zm-9.28-92.774c7.892-4.556 12.954-12.49 13.54-21.223.203-3.026 1.946-5.648 4.663-7.015 3.766-1.893 8.661-.533 10.915 3.033.756 1.197 1.192 2.505 1.296 3.889.567 7.565 4.647 14.633 10.916 18.907 1.146.781 2.061 1.813 2.72 3.067 1.961 3.735.691 8.655-2.831 10.969-2.542 1.67-5.684 1.868-8.406.531-7.855-3.857-17.257-3.441-25.149 1.114l-2.586 1.493c-1.375-5.011-3.22-9.866-5.514-14.514zm-159.071 13.273c-7.892-4.557-17.295-4.973-25.15-1.114-2.722 1.338-5.865 1.138-8.407-.531-3.521-2.313-4.791-7.234-2.83-10.969.658-1.253 1.573-2.286 2.719-3.067 6.268-4.274 10.348-11.342 10.916-18.906.104-1.384.54-2.693 1.296-3.889 2.254-3.566 7.15-4.929 10.915-3.034 2.717 1.367 4.46 3.989 4.663 7.015.586 8.733 5.648 16.667 13.54 21.223l1.972 1.138c-2.257 4.68-4.062 9.56-5.393 14.583zm6.047 92.773c-7.892 4.556-12.954 12.49-13.54 21.224-.203 3.026-1.947 5.648-4.664 7.015-3.763 1.895-8.66.533-10.915-3.033-.756-1.197-1.192-2.505-1.296-3.889-.567-7.565-4.647-14.633-10.916-18.907-1.147-.782-2.062-1.813-2.72-3.067-1.961-3.735-.691-8.656 2.831-10.97 2.542-1.668 5.684-1.868 8.407-.531 7.854 3.859 17.256 3.442 25.149-1.114l17.066-9.853c2.872 4.274 6.159 8.298 9.837 12.018zm101.493 33.696-1.609-26.36c-.252-4.134-3.807-7.294-7.943-7.029-4.134.252-7.281 3.809-7.029 7.943l1.553 25.446h-16.422l1.556-25.496c.252-4.135-2.895-7.691-7.029-7.943-4.133-.264-7.69 2.894-7.943 7.029l-1.612 26.41h-17.204l3.481-38.645c.382-4.231-1.421-8.304-4.809-10.849-16.661-13.049-26.121-32.625-26.028-53.714.161-36.349 29.839-66.617 66.158-67.472 40.325-.949 69.509 32.115 69.509 68.069 0 10.92-3.342 35.397-26.254 53.238-3.353 2.611-5.025 6.627-4.656 10.728l3.481 38.646h-17.2z"/></g></svg>